<svg xmlns="http://www.w3.org/2000/svg" viewBox="-5 -10 110 135"><path d="M45.398 27.531H19.796c-1.68 0-3.04 1.36-3.04 3.04v36.577c0 1.68 1.36 3.04 3.04 3.04h25.602c1.68 0 3.04-1.36 3.04-3.04l.003-36.578c0-1.68-1.36-3.039-3.04-3.039zm-4.04 36.617h-17.52c-.858 0-1.558-.7-1.558-1.559s.7-1.558 1.559-1.558h17.52c.86 0 1.559.71 1.559 1.558 0 .852-.7 1.559-1.56 1.559zm0-9.148h-17.52c-.858 0-1.558-.7-1.558-1.559s.7-1.559 1.559-1.559h17.52c.86 0 1.559.7 1.559 1.559S42.218 55 41.358 55zm0-9.16h-17.52a1.56 1.56 0 0 1 0-3.117h17.52c.86 0 1.56.698 1.56 1.558s-.7 1.558-1.56 1.558zm0-9.16h-17.52a1.56 1.56 0 0 1 0-3.117h17.52c.86-.001 1.56.698 1.56 1.558s-.7 1.558-1.56 1.558zM80.199 27.531H54.597c-1.68 0-3.04 1.36-3.04 3.04v36.577c0 1.68 1.36 3.04 3.04 3.04h25.602c1.68 0 3.04-1.36 3.04-3.04V30.57c0-1.68-1.36-3.039-3.04-3.039zm-4.04 36.617H58.64c-.858 0-1.558-.7-1.558-1.559s.7-1.558 1.559-1.558h17.52c.86 0 1.558.71 1.558 1.558 0 .852-.699 1.559-1.558 1.559zm0-9.148H58.64c-.858 0-1.558-.7-1.558-1.559s.7-1.559 1.559-1.559h17.52c.86 0 1.558.7 1.558 1.559S77.02 55 76.16 55zm0-9.16H58.64a1.56 1.56 0 0 1 0-3.117h17.52c.86 0 1.56.698 1.56 1.558s-.7 1.558-1.56 1.558zm0-9.16H58.64a1.56 1.56 0 0 1 0-3.117h17.52c.86-.001 1.56.698 1.56 1.558s-.7 1.558-1.56 1.558z"/><path d="M80.969 20.762H19.02a9.02 9.02 0 0 0-9.02 9.02v38.14a9.028 9.028 0 0 0 9.032 9.032h20.98c2.218 0 4.488.449 6.39 1.61.989.608 2.239.679 3.61.679 1.37 0 2.62-.059 3.61-.68 1.897-1.16 4.171-1.61 6.39-1.61H81c4.98 0 9.02-4.03 9.02-9.019V29.79a9.028 9.028 0 0 0-9.032-9.031zm5.39 46.387a6.165 6.165 0 0 1-6.16 6.16H54.597a6.09 6.09 0 0 1-4.601-2.09 6.09 6.09 0 0 1-4.602 2.09H19.792a6.165 6.165 0 0 1-6.16-6.16l.008-36.578a6.165 6.165 0 0 1 6.16-6.16h25.602c1.84 0 3.48.808 4.602 2.09a6.09 6.09 0 0 1 4.601-2.09h25.602a6.165 6.165 0 0 1 6.16 6.16v36.578z"/></svg>